<svg width="35" height="35" viewBox="0 0 35 35" fill="none" xmlns="http://www.w3.org/2000/svg">
<g id="arrow-left-contained-01">
<path id="Icon" d="M16.8058 23.8962C16.2992 24.5041 15.3957 24.5862 14.7878 24.0796C14.1799 23.5731 14.0978 22.6696 14.6044 22.0617L16.8058 23.8962ZM20.7709 16.9L21.8716 15.9827C22.3144 16.5141 22.3144 17.2859 21.8716 17.8172L20.7709 16.9ZM14.6044 11.7383C14.0978 11.1304 14.1799 10.2269 14.7878 9.72031C15.3957 9.21372 16.2992 9.29585 16.8058 9.90376L14.6044 11.7383ZM14.6044 22.0617L19.6701 15.9827L21.8716 17.8172L16.8058 23.8962L14.6044 22.0617ZM19.6701 17.8172L14.6044 11.7383L16.8058 9.90376L21.8716 15.9827L19.6701 17.8172ZM17.3313 4.88408C10.5259 4.88408 5.00909 10.4009 5.00908 17.2063H2.14346C2.14346 8.81826 8.94328 2.01845 17.3313 2.01845V4.88408ZM5.00908 17.2063C5.00908 24.0116 10.5259 29.5285 17.3313 29.5285V32.3941C8.94328 32.3941 2.14346 25.5943 2.14346 17.2063H5.00908ZM17.3313 29.5285C24.1366 29.5285 29.6535 24.0116 29.6535 17.2063H32.5191C32.5191 25.5943 25.7193 32.3941 17.3313 32.3941V29.5285ZM29.6535 17.2063C29.6535 10.4009 24.1366 4.88408 17.3313 4.88408V2.01845C25.7193 2.01845 32.5191 8.81827 32.5191 17.2063H29.6535Z" fill="white"/>
</g>
</svg>
