<svg width="23" height="24" viewBox="0 0 23 24" fill="none" xmlns="http://www.w3.org/2000/svg">
<g id="g4146">
<path id="path4148" d="M10.3551 22.9938C8.58453 22.825 6.79095 22.1879 5.24812 21.1798C3.95602 20.3354 3.66434 19.99 3.66434 19.2967C3.66434 17.9073 5.19183 15.4715 7.8016 12.698C9.28558 11.1219 11.3504 9.27462 11.573 9.32323C12.0079 9.42046 15.48 12.8132 16.7797 14.4072C18.8368 16.9351 19.7835 19.0024 19.3025 19.9235C18.9366 20.6246 16.6723 21.9934 15.0092 22.5179C13.6378 22.9529 11.8365 23.1371 10.3551 22.9938ZM1.92194 17.8536C0.849882 16.2059 0.307459 14.5812 0.0439234 12.2349C-0.043069 11.4597 -0.0123658 11.017 0.240936 9.42557C0.555643 7.44266 1.68143 5.15015 3.03748 3.73781C3.61573 3.13653 3.6669 3.12118 4.37052 3.35913C5.22509 3.64826 6.13595 4.27767 7.55085 5.55953L8.37728 6.30664L7.92697 6.86186C5.83148 9.43581 3.6234 13.0844 2.79186 15.3411C2.33899 16.5666 2.15733 17.7999 2.35178 18.3116C2.48227 18.657 2.36201 18.5291 1.92194 17.8536ZM20.7532 18.1325C20.8581 17.6157 20.7251 16.6639 20.4104 15.7044C19.7323 13.6268 17.4578 9.75819 15.3699 7.13051L14.7124 6.30408L15.4237 5.64908C16.3524 4.79451 16.9972 4.28279 17.6931 3.85038C18.2432 3.50753 19.0262 3.20562 19.3639 3.20562C19.5712 3.20562 20.3029 3.96552 20.894 4.79707C21.8099 6.08148 22.4828 7.64223 22.8231 9.26438C23.0432 10.3134 23.0611 12.5573 22.859 13.6012C22.6926 14.4583 22.3396 15.5713 21.9967 16.3287C21.7383 16.8941 21.0986 17.9918 20.8172 18.35C20.6739 18.5291 20.6739 18.5291 20.7532 18.1325ZM10.5444 2.81159C9.57982 2.32034 8.09328 1.79583 7.27197 1.65255C6.98285 1.60393 6.49415 1.57579 6.17945 1.59114C5.50142 1.6244 5.53212 1.59114 6.61952 1.07686C7.52271 0.649576 8.2775 0.398833 9.30094 0.183911C10.4523 -0.0591562 12.6143 -0.0617148 13.7478 0.178794C14.9708 0.437212 16.4113 0.974518 17.2224 1.47345L17.4629 1.62184L16.9102 1.5937C15.81 1.53741 14.2083 1.98261 12.4864 2.82183C11.967 3.07513 11.5167 3.27726 11.4834 3.26958C11.4527 3.26447 11.028 3.05722 10.5444 2.81159Z" fill="#FF5C00"/>
</g>
</svg>
