<svg width="35" height="35" viewBox="0 0 35 35" fill="none" xmlns="http://www.w3.org/2000/svg">
<g id="users-profiles-plus">
<path id="Icon" d="M2.43903 30.9509C2.43896 31.5032 2.88663 31.9509 3.43891 31.951C3.9912 31.9511 4.43896 31.5034 4.43903 30.9511L2.43903 30.9509ZM3.43961 25.7919L4.43961 25.792L3.43961 25.7919ZM18.0548 21.634C18.6071 21.634 19.0548 21.1863 19.0548 20.634C19.0548 20.0817 18.6071 19.634 18.0548 19.634V21.634ZM30.951 23.3535C31.5033 23.3535 31.951 22.9058 31.951 22.3535C31.951 21.8012 31.5033 21.3535 30.951 21.3535V23.3535ZM23.2133 21.3535C22.661 21.3535 22.2133 21.8012 22.2133 22.3535C22.2133 22.9058 22.661 23.3535 23.2133 23.3535V21.3535ZM26.0821 26.2222C26.0821 26.7745 26.5299 27.2222 27.0821 27.2222C27.6344 27.2222 28.0821 26.7745 28.0821 26.2222H26.0821ZM28.0821 18.4844C28.0821 17.9321 27.6344 17.4844 27.0821 17.4844C26.5299 17.4844 26.0821 17.9321 26.0821 18.4844H28.0821ZM25.4217 2.56669C24.94 2.29664 24.3305 2.46828 24.0605 2.95004C23.7904 3.4318 23.9621 4.04126 24.4438 4.3113L25.4217 2.56669ZM24.4438 12.8837C23.9621 13.1537 23.7904 13.7632 24.0605 14.245C24.3305 14.7267 24.94 14.8983 25.4217 14.6283L24.4438 12.8837ZM19.634 8.59749C19.634 10.8942 17.7722 12.756 15.4755 12.756V14.756C18.8768 14.756 21.634 11.9987 21.634 8.59749H19.634ZM15.4755 12.756C13.1788 12.756 11.317 10.8942 11.317 8.59749H9.31702C9.31702 11.9987 12.0743 14.756 15.4755 14.756V12.756ZM11.317 8.59749C11.317 6.30082 13.1788 4.439 15.4755 4.439V2.439C12.0743 2.439 9.31702 5.19625 9.31702 8.59749H11.317ZM15.4755 4.439C17.7722 4.439 19.634 6.30082 19.634 8.59749H21.634C21.634 5.19625 18.8768 2.439 15.4755 2.439V4.439ZM4.43903 30.9511L4.43961 25.792L2.43961 25.7918L2.43903 30.9509L4.43903 30.9511ZM8.5981 19.634C5.19713 19.634 2.43999 22.3908 2.43961 25.7918L4.43961 25.792C4.43986 23.4955 6.30161 21.634 8.5981 21.634V19.634ZM8.5981 21.634H18.0548V19.634H8.5981V21.634ZM30.951 21.3535H27.0821V23.3535H30.951V21.3535ZM27.0821 21.3535H23.2133V23.3535H27.0821V21.3535ZM28.0821 26.2222V22.3535H26.0821V26.2222H28.0821ZM28.0821 22.3535V18.4844H26.0821V22.3535H28.0821ZM24.4438 4.3113C26.3119 5.35841 27.3718 6.94454 27.3718 8.59749H29.3718C29.3718 6.02299 27.727 3.85889 25.4217 2.56669L24.4438 4.3113ZM27.3718 8.59749C27.3718 10.2504 26.3119 11.8366 24.4438 12.8837L25.4217 14.6283C27.727 13.3361 29.3718 11.172 29.3718 8.59749H27.3718Z" fill="white"/>
</g>
</svg>
