<svg width="245" height="152" viewBox="0 0 245 152" fill="none" xmlns="http://www.w3.org/2000/svg">
<g id="Xbox-Logo.wine 1">
<path id="path6965" d="M216.289 88.0833L203.319 70.6079L215.169 54.7434H210.718L201.08 67.6862L191.441 54.7434H187.017L198.841 70.6352L185.898 88.1107H190.349L201.08 73.6388L211.838 88.1107H216.289" fill="white"/>
<path id="path6967" d="M127.928 88.0833L114.986 70.6079L126.809 54.7434H122.385L112.746 67.6862L103.108 54.7434H98.6569L110.507 70.6352L97.5374 88.1107H101.988L112.746 73.6388L123.478 88.1107H127.928" fill="white"/>
<path id="path6969" d="M143.465 84.5882H133.553V72.4646H143.465C147.233 72.4646 151.711 73.4749 151.711 78.2534C151.711 83.7691 146.523 84.5882 143.465 84.5882ZM133.553 58.2112H143.465C146.141 58.2112 150.646 58.8665 150.646 63.5084C150.646 67.0035 148.025 69.1061 143.465 69.1061H133.553V58.2112ZM152.558 71.8639C151.848 71.2632 151.111 70.799 150.346 70.4713C152.776 69.1607 154.387 66.6759 154.387 63.8088C154.387 61.679 153.595 54.7434 143.438 54.7434H129.758V69.1334H125.198C124.597 69.8979 123.259 71.7274 122.74 72.4646H129.758V88.0833H143.438C150.865 88.0833 155.48 84.3425 155.48 78.3353C155.507 75.714 154.497 73.4749 152.558 71.8639Z" fill="white"/>
<path id="path6971" d="M173.283 85.2982C166.047 85.2982 160.995 79.5913 160.995 71.3997C160.995 63.2081 166.047 57.5012 173.283 57.5012C180.491 57.5012 185.516 63.2081 185.516 71.3997C185.516 79.564 180.491 85.2982 173.283 85.2982ZM173.283 53.9788C163.78 53.9788 157.172 61.1328 157.172 71.3997C157.172 81.6665 163.78 88.8206 173.283 88.8206C182.73 88.8206 189.338 81.6665 189.338 71.3997C189.338 61.1328 182.73 53.9788 173.283 53.9788Z" fill="white"/>
<g id="g4146">
<path id="path4148" d="M53.7459 98.7909C49.3799 98.3745 44.9571 96.8035 41.1527 94.3177C37.9666 92.2357 37.2473 91.3839 37.2473 89.6741C37.2473 86.2483 41.0139 80.2419 47.4493 73.4027C51.1086 69.5163 56.2001 64.961 56.749 65.0809C57.8216 65.3206 66.3832 73.6866 69.5882 77.6173C74.6608 83.8508 76.9952 88.9486 75.8091 91.2199C74.9069 92.9486 69.3233 96.324 65.2223 97.6174C61.8406 98.69 57.3989 99.1442 53.7459 98.7909ZM32.9507 86.1158C30.3072 82.0526 28.9696 78.0463 28.3198 72.2608C28.1053 70.3491 28.181 69.2576 28.8056 65.3333C29.5816 60.4436 32.3577 54.7906 35.7016 51.3079C37.1274 49.8253 37.2536 49.7874 38.9886 50.3742C41.0959 51.0871 43.342 52.6392 46.831 55.8001L48.8688 57.6424L47.7584 59.0114C42.5912 65.3585 37.1464 74.3554 35.0959 79.9201C33.9791 82.9422 33.5312 85.9833 34.0107 87.2451C34.3325 88.0968 34.0359 87.7814 32.9507 86.1158ZM79.3864 86.8035C79.6451 85.529 79.317 83.182 78.541 80.816C76.8691 75.693 71.2602 66.1535 66.1119 59.6739L64.4904 57.636L66.2444 56.0209C68.5346 53.9136 70.1245 52.6518 71.8406 51.5855C73.1971 50.7401 75.1277 49.9956 75.9605 49.9956C76.4716 49.9956 78.276 51.8694 79.7334 53.9199C81.9921 57.0871 83.6515 60.9358 84.4906 64.9358C85.0332 67.5226 85.0773 73.0557 84.5789 75.6299C84.1688 77.7435 83.2981 80.488 82.4527 82.3555C81.8155 83.7498 80.2382 86.4565 79.5442 87.3397C79.1908 87.7814 79.1908 87.7814 79.3864 86.8035ZM54.2127 49.024C51.8342 47.8126 48.1685 46.5192 46.1433 46.1659C45.4303 46.046 44.2253 45.9766 43.4492 46.0145C41.7773 46.0965 41.853 46.0145 44.5344 44.7464C46.7616 43.6927 48.6228 43.0744 51.1465 42.5444C53.9856 41.9451 59.3169 41.9388 62.1119 42.5318C65.1276 43.1691 68.6797 44.494 70.6797 45.7243L71.2728 46.0902L69.91 46.0208C67.1971 45.882 63.2475 46.9798 59.0014 49.0492C57.7207 49.6738 56.6102 50.1723 56.5282 50.1533C56.4525 50.1407 55.4052 49.6297 54.2127 49.024Z" fill="white"/>
</g>
</g>
</svg>
